<svg width="45" height="45" viewBox="0 0 45 45" fill="none" xmlns="http://www.w3.org/2000/svg">
<path fill-rule="evenodd" clip-rule="evenodd" d="M22.5 4.95C22.5 2.21619 20.2838 0 17.55 0H4.95C2.21619 0 0 2.21619 0 4.95V17.7119C0 20.4457 2.21619 22.6618 4.95 22.6618H17.55C20.2838 22.6618 22.5 24.878 22.5 27.6118V40.05C22.5 42.7837 24.7162 45 27.45 45H40.05C42.7837 45 45 42.7837 45 40.05V27.288C45 24.5542 42.7837 22.3381 40.05 22.3381H27.45C24.7162 22.3381 22.5 20.1219 22.5 17.3881V4.95Z" fill="white"/>
<path d="M16.6667 10.3333C16.6667 9.78825 16.6667 9.28699 16.5652 9.04196C16.4637 8.79693 16.271 8.60425 15.8856 8.21887L12.7279 5.06117C12.3953 4.72859 12.2291 4.56229 12.023 4.46375C11.9801 4.44325 11.9363 4.42507 11.8915 4.40926C11.6761 4.33325 11.4409 4.33325 10.9705 4.33325C8.80721 4.33325 7.72554 4.33325 6.99289 4.92397C6.84487 5.04331 6.71005 5.17813 6.59071 5.32614C6 6.05879 6 7.14047 6 9.30381V12.3333C6 14.8474 6 16.1045 6.78105 16.8855C7.5621 17.6666 8.81917 17.6666 11.3333 17.6666H16.6667M12 4.66659V4.99992C12 6.88554 12 7.82835 12.5858 8.41413C13.1716 8.99992 14.1144 8.99992 16 8.99992H16.3333" stroke="black" stroke-linecap="round" stroke-linejoin="round"/>
<path d="M8.66797 15.6666V14.3333M8.66797 14.3333V12.3333H9.66797C10.2203 12.3333 10.668 12.781 10.668 13.3333C10.668 13.8855 10.2203 14.3333 9.66797 14.3333H8.66797ZM18.0013 12.9999C18.0013 12.6317 17.7028 12.3333 17.3346 12.3333H16.668C16.2998 12.3333 16.0013 12.6317 16.0013 12.9999V14.9999C16.0013 15.3681 16.2998 15.6666 16.668 15.6666H17.3346C17.7028 15.6666 18.0013 15.3681 18.0013 14.9999V14.3333H17.3346M12.0013 15.6666V12.3333L14.3346 15.6666V12.3333" stroke="black" stroke-linecap="round" stroke-linejoin="round"/>
<path d="M36.5066 34.6668L35.5309 37.275C35.35 37.7584 35.2596 38.0001 35.1164 38.0001C34.9732 38.0001 34.8828 37.7584 34.702 37.275L33.7263 34.6668M39.988 35.2223C39.9352 34.6567 39.4551 34.6668 38.949 34.6668C38.453 34.6668 38.2049 34.6668 38.0508 34.8295C37.8967 34.9922 37.8967 35.2541 37.8967 35.7779V36.889C37.8967 37.4128 37.8967 37.6746 38.0508 37.8374C38.2049 38.0001 38.453 38.0001 38.949 38.0001C39.445 38.0001 39.6931 38.0001 39.8472 37.8374C40.0013 37.6746 40.0013 37.4128 40.0013 36.889C40.0013 36.4981 39.2121 36.6112 39.2121 36.6112M32.1504 34.6668H31.5021C31.243 34.6668 31.1134 34.6668 31.0112 34.709C30.6632 34.8531 30.668 35.1916 30.668 35.5001C30.668 35.8086 30.6632 36.1471 31.0112 36.2912C31.1134 36.3334 31.243 36.3334 31.5021 36.3334C31.7611 36.3334 31.8907 36.3334 31.9929 36.3757C32.3409 36.5198 32.3361 36.8583 32.3361 37.1668C32.3361 37.4752 32.3409 37.8138 31.9929 37.9578C31.8907 38.0001 31.7611 38.0001 31.5021 38.0001H30.7959" stroke="black" stroke-linecap="round" stroke-linejoin="round"/>
<path d="M36 40.6666H33.1515C30.9774 40.6666 29.8903 40.6666 29.1354 40.1347C28.9191 39.9823 28.7271 39.8016 28.5651 39.598C28 38.8875 28 37.8643 28 35.8181V34.1211C28 32.1457 28 31.158 28.3126 30.3691C28.8152 29.1009 29.8781 28.1005 31.2256 27.6275C32.0638 27.3333 33.1132 27.3333 35.2121 27.3333C36.4115 27.3333 37.0112 27.3333 37.4901 27.5014C38.2601 27.7717 38.8675 28.3433 39.1547 29.068C39.3333 29.5188 39.3333 30.0832 39.3333 31.212V32.6666" stroke="black" stroke-linecap="round" stroke-linejoin="round"/>
<path d="M28 33.9999C28 32.7727 28.9949 31.7777 30.2222 31.7777C30.6661 31.7777 31.1894 31.8555 31.6209 31.7398C32.0043 31.6371 32.3038 31.3376 32.4066 30.9542C32.5222 30.5226 32.4444 29.9993 32.4444 29.5555C32.4444 28.3282 33.4394 27.3333 34.6667 27.3333" stroke="black" stroke-linecap="round" stroke-linejoin="round"/>
</svg>
