<svg width="45" height="45" viewBox="0 0 45 45" fill="none" xmlns="http://www.w3.org/2000/svg">
<path fill-rule="evenodd" clip-rule="evenodd" d="M22.5 4.95C22.5 2.21619 20.2838 0 17.55 0H4.95C2.21619 0 0 2.21619 0 4.95V17.7119C0 20.4457 2.21619 22.6618 4.95 22.6618H17.55C20.2838 22.6618 22.5 24.878 22.5 27.6118V40.05C22.5 42.7837 24.7162 45 27.45 45H40.05C42.7837 45 45 42.7837 45 40.05V27.288C45 24.5542 42.7837 22.3381 40.05 22.3381H27.45C24.7162 22.3381 22.5 20.1219 22.5 17.3881V4.95Z" fill="black"/>
<path d="M16.6667 10.3334C16.6667 9.78837 16.6667 9.28711 16.5652 9.04208C16.4637 8.79705 16.271 8.60437 15.8856 8.21899L12.7279 5.06129C12.3953 4.72871 12.2291 4.56241 12.023 4.46387C11.9801 4.44337 11.9363 4.42519 11.8915 4.40938C11.6761 4.33337 11.4409 4.33337 10.9705 4.33337C8.80721 4.33337 7.72554 4.33337 6.99289 4.92409C6.84487 5.04343 6.71005 5.17825 6.59071 5.32626C6 6.05891 6 7.14059 6 9.30393V12.3334C6 14.8475 6 16.1046 6.78105 16.8856C7.5621 17.6667 8.81917 17.6667 11.3333 17.6667H16.6667M12 4.66671V5.00004C12 6.88566 12 7.82847 12.5858 8.41425C13.1716 9.00004 14.1144 9.00004 16 9.00004H16.3333" stroke="white" stroke-linecap="round" stroke-linejoin="round"/>
<path d="M8.66797 15.6667V14.3334M8.66797 14.3334V12.3334H9.66797C10.2203 12.3334 10.668 12.7811 10.668 13.3334C10.668 13.8856 10.2203 14.3334 9.66797 14.3334H8.66797ZM18.0013 13C18.0013 12.6318 17.7028 12.3334 17.3346 12.3334H16.668C16.2998 12.3334 16.0013 12.6318 16.0013 13V15C16.0013 15.3682 16.2998 15.6667 16.668 15.6667H17.3346C17.7028 15.6667 18.0013 15.3682 18.0013 15V14.3334H17.3346M12.0013 15.6667V12.3334L14.3346 15.6667V12.3334" stroke="white" stroke-linecap="round" stroke-linejoin="round"/>
<path d="M36.5066 34.6666L35.5309 37.2748C35.35 37.7582 35.2596 38 35.1164 38C34.9732 38 34.8828 37.7582 34.702 37.2748L33.7263 34.6666M39.988 35.2222C39.9352 34.6566 39.4551 34.6666 38.949 34.6666C38.453 34.6666 38.2049 34.6666 38.0508 34.8294C37.8967 34.9921 37.8967 35.254 37.8967 35.7778V36.8888C37.8967 37.4126 37.8967 37.6745 38.0508 37.8372C38.2049 38 38.453 38 38.949 38C39.445 38 39.6931 38 39.8472 37.8372C40.0013 37.6745 40.0013 37.4126 40.0013 36.8888C40.0013 36.498 39.2121 36.6111 39.2121 36.6111M32.1504 34.6666H31.5021C31.243 34.6666 31.1134 34.6666 31.0112 34.7089C30.6632 34.853 30.668 35.1915 30.668 35.5C30.668 35.8084 30.6632 36.147 31.0112 36.291C31.1134 36.3333 31.243 36.3333 31.5021 36.3333C31.7611 36.3333 31.8907 36.3333 31.9929 36.3756C32.3409 36.5196 32.3361 36.8582 32.3361 37.1666C32.3361 37.4751 32.3409 37.8136 31.9929 37.9577C31.8907 38 31.7611 38 31.5021 38H30.7959" stroke="white" stroke-linecap="round" stroke-linejoin="round"/>
<path d="M36 40.6667H33.1515C30.9774 40.6667 29.8903 40.6667 29.1354 40.1348C28.9191 39.9824 28.7271 39.8017 28.5651 39.5981C28 38.8876 28 37.8644 28 35.8182V34.1212C28 32.1458 28 31.1581 28.3126 30.3692C28.8152 29.101 29.8781 28.1006 31.2256 27.6276C32.0638 27.3334 33.1132 27.3334 35.2121 27.3334C36.4115 27.3334 37.0112 27.3334 37.4901 27.5015C38.2601 27.7718 38.8675 28.3434 39.1547 29.0681C39.3333 29.5189 39.3333 30.0833 39.3333 31.2122V32.6667" stroke="white" stroke-linecap="round" stroke-linejoin="round"/>
<path d="M28 34C28 32.7728 28.9949 31.7778 30.2222 31.7778C30.6661 31.7778 31.1894 31.8556 31.6209 31.74C32.0043 31.6372 32.3038 31.3377 32.4066 30.9543C32.5222 30.5227 32.4444 29.9995 32.4444 29.5556C32.4444 28.3283 33.4394 27.3334 34.6667 27.3334" stroke="white" stroke-linecap="round" stroke-linejoin="round"/>
</svg>
